<svg width="136" height="24" viewBox="0 0 136 24" fill="none" xmlns="http://www.w3.org/2000/svg">
<g clip-path="url(#clip0_1_416)">
<path d="M11.8402 7.44432H11.5474L10.9615 14.6914H12.8254L12.3462 11.6455L11.8402 7.44432Z" fill="#808080"/>
<path d="M12 0.501877C9.72587 0.501877 7.50283 1.17623 5.61197 2.43966C3.72112 3.70309 2.24737 5.49885 1.37711 7.59986C0.506844 9.70087 0.279142 12.0128 0.7228 14.2432C1.16646 16.4736 2.26155 18.5224 3.86959 20.1304C5.47763 21.7384 7.5264 22.8335 9.75682 23.2772C11.9872 23.7208 14.2991 23.4931 16.4001 22.6229C18.5011 21.7526 20.2969 20.2789 21.5603 18.388C22.8238 16.4972 23.4981 14.2741 23.4981 12C23.4981 8.95051 22.2867 6.02592 20.1304 3.8696C17.9741 1.71329 15.0495 0.501881 12 0.501877ZM13.5976 19.4176L12.9053 15.1115H10.9083L10.5621 19.4176H8.16577L11.0947 6.20499L9.94974 4.08337H12.5858L15.8342 19.4176H13.5976Z" fill="#808080"/>
</g>
<path d="M42.734 14.494H38.324L37.442 17H36.14L39.836 6.99H41.236L44.918 17H43.616L42.734 14.494ZM38.744 13.374H42.328L40.55 8.152H40.522L38.744 13.374ZM46.0025 17V6.99H47.7245L50.8605 15.306H50.8885L54.0245 6.99H55.7465V17H54.4865V8.768H54.4585L51.4345 17H50.3145L47.2905 8.768H47.2625V17H46.0025ZM63.4195 14.494H59.0095L58.1275 17H56.8255L60.5215 6.99H61.9215L65.6035 17H64.3015L63.4195 14.494ZM59.4295 13.374H63.0135L61.2355 8.152H61.2075L59.4295 13.374ZM66.688 6.99H67.948V12.352L72.974 6.99H74.514L70.58 11.148L74.794 17H73.324L69.74 12.016L67.948 13.906V17H66.688V6.99ZM81.4938 14.494H77.0838L76.2018 17H74.8998L78.5958 6.99H79.9958L83.6778 17H82.3758L81.4938 14.494ZM77.5038 13.374H81.0878L79.3098 8.152H79.2818L77.5038 13.374ZM88.825 11.26H93.963V12.38H88.825V15.88H94.803V17H87.565V6.99H94.635V8.11H88.825V11.26ZM100.983 6.99H102.103V17H100.983V16.118H100.955C100.535 16.664 99.8629 17.196 98.7149 17.196C96.9229 17.196 95.4949 15.782 95.4949 13.43C95.4949 11.078 96.9229 9.664 98.7149 9.664C99.8629 9.664 100.535 10.168 100.955 10.784H100.983V6.99ZM98.8269 16.216C100.157 16.216 100.983 15.11 100.983 13.43C100.983 11.75 100.157 10.644 98.8269 10.644C97.3569 10.644 96.6149 12.03 96.6149 13.43C96.6149 14.83 97.3569 16.216 98.8269 16.216ZM104.202 8.474C103.894 8.474 103.502 8.236 103.502 7.802C103.502 7.368 103.894 7.13 104.202 7.13C104.524 7.13 104.902 7.368 104.902 7.802C104.902 8.236 104.524 8.474 104.202 8.474ZM103.642 9.86H104.762V17H103.642V9.86ZM109.55 10.84H108.15V15.138C108.15 15.95 108.598 16.09 109.55 16.02V17C109.298 17.056 109.004 17.084 108.71 17.084C107.758 17.084 107.03 16.706 107.03 15.25V10.84H105.98V9.86H107.03V7.48H108.15V9.86H109.55V10.84ZM113.747 17.196C111.563 17.196 110.247 15.656 110.247 13.43C110.247 11.204 111.563 9.664 113.747 9.664C115.917 9.664 117.233 11.204 117.233 13.43C117.233 15.656 115.917 17.196 113.747 17.196ZM113.747 16.216C115.343 16.216 116.113 14.956 116.113 13.43C116.113 11.904 115.343 10.644 113.747 10.644C112.137 10.644 111.367 11.904 111.367 13.43C111.367 14.956 112.137 16.216 113.747 16.216ZM121.486 9.664C121.752 9.664 121.948 9.678 122.144 9.706V10.826H122.116C120.562 10.574 119.484 11.666 119.484 13.192V17H118.364V9.86H119.484V11.274H119.512C119.89 10.336 120.464 9.664 121.486 9.664ZM123.863 8.474C123.555 8.474 123.163 8.236 123.163 7.802C123.163 7.368 123.555 7.13 123.863 7.13C124.185 7.13 124.563 7.368 124.563 7.802C124.563 8.236 124.185 8.474 123.863 8.474ZM123.303 9.86H124.423V17H123.303V9.86ZM130.47 11.68C130.47 11.12 130.162 10.644 129.014 10.644C127.656 10.644 127.208 11.036 127.138 12.072H126.018C126.088 10.7 126.942 9.664 129.014 9.664C130.372 9.664 131.59 10.196 131.59 11.918V15.39C131.59 15.95 131.688 16.258 132.402 16.174V16.958C132.108 17.056 131.954 17.07 131.744 17.07C131.072 17.07 130.666 16.888 130.47 16.104H130.442C129.994 16.776 129.196 17.196 128.02 17.196C126.578 17.196 125.668 16.37 125.668 15.166C125.668 13.542 126.872 13.122 128.72 12.772C129.924 12.548 130.47 12.394 130.47 11.68ZM128.132 16.216C129.462 16.216 130.47 15.614 130.47 14.242V13.052C130.26 13.262 129.574 13.458 128.818 13.612C127.432 13.906 126.788 14.256 126.788 15.11C126.788 15.81 127.208 16.216 128.132 16.216ZM133.281 6.99H134.401V17H133.281V6.99Z" fill="#808080"/>
<defs>
<clipPath id="clip0_1_416">
<rect width="24" height="24" fill="white"/>
</clipPath>
</defs>
</svg>
