<svg width="28" height="28" viewBox="0 0 28 28" fill="none" xmlns="http://www.w3.org/2000/svg">
<path d="M17.3726 12.1728C20.0986 13.3969 22 16.1611 22 19.375V22.75C22 23.9926 21.0051 25 19.7778 25H13.1111C10.2084 25 7.73898 23.1217 6.82379 20.5M17.3726 12.1728C16.6711 9.20566 14.0344 7 10.8889 7H9.77778C5.48223 7 2 10.5258 2 14.875V18.25C2 19.4926 2.99492 20.5 4.22222 20.5H6.82379M17.3726 12.1728C17.4922 12.6787 17.5556 13.2069 17.5556 13.75C17.5556 17.4779 14.5708 20.5 10.8889 20.5H6.82379" stroke="#808080" stroke-width="1.2" stroke-linejoin="round"/>
<rect x="4" width="24" height="16" rx="8" fill="#2C36F0"/>
<path d="M10.0503 4.09H10.7503V11H9.85031V5.83C9.43031 6.23 9.03031 6.23 8.41031 6.23V5.58C9.62031 5.58 9.95031 4.99 10.0503 4.09ZM14.6273 11.14C12.7373 11.14 11.9673 9.51 11.9673 7.55C11.9673 5.59 12.7373 3.95 14.6273 3.95C16.5173 3.95 17.2873 5.59 17.2873 7.55C17.2873 9.51 16.5173 11.14 14.6273 11.14ZM14.6273 10.34C15.9473 10.34 16.3873 9.02 16.3873 7.55C16.3873 6.08 15.9473 4.75 14.6273 4.75C13.3073 4.75 12.8673 6.08 12.8673 7.55C12.8673 9.02 13.3073 10.34 14.6273 10.34ZM20.8285 11.14C18.9385 11.14 18.1685 9.51 18.1685 7.55C18.1685 5.59 18.9385 3.95 20.8285 3.95C22.7185 3.95 23.4885 5.59 23.4885 7.55C23.4885 9.51 22.7185 11.14 20.8285 11.14ZM20.8285 10.34C22.1485 10.34 22.5885 9.02 22.5885 7.55C22.5885 6.08 22.1485 4.75 20.8285 4.75C19.5085 4.75 19.0685 6.08 19.0685 7.55C19.0685 9.02 19.5085 10.34 20.8285 10.34Z" fill="white"/>
</svg>
