<svg width="28" height="28" viewBox="0 0 28 28" fill="none" xmlns="http://www.w3.org/2000/svg">
<path d="M4.45549 17.88L3.99824 17.4916H3.99824L4.45549 17.88ZM5.33476 15.8385L4.73857 15.771L5.33476 15.8385ZM18.6652 15.8385L19.2614 15.771L18.6652 15.8385ZM19.5445 17.88L20.0018 17.4916L19.5445 17.88ZM18.3204 12.794L17.7242 12.8616L18.3204 12.794ZM5.67964 12.794L6.27582 12.8616L5.67964 12.794ZM15.5618 23.2106C15.6781 22.9003 15.5209 22.5545 15.2106 22.4382C14.9003 22.3219 14.5545 22.4791 14.4382 22.7894L15.5618 23.2106ZM9.56184 22.7894C9.44555 22.4791 9.09973 22.3219 8.78944 22.4382C8.47914 22.5545 8.32187 22.9003 8.43816 23.2106L9.56184 22.7894ZM18.1699 20.4H5.83014V21.6H18.1699V20.4ZM17.7242 12.8616L18.0691 15.906L19.2614 15.771L18.9166 12.7265L17.7242 12.8616ZM5.93095 15.906L6.27582 12.8616L5.08345 12.7265L4.73857 15.771L5.93095 15.906ZM4.91275 18.2685C5.47787 17.6034 5.83201 16.7794 5.93095 15.906L4.73857 15.771C4.66611 16.4106 4.40705 17.0104 3.99824 17.4916L4.91275 18.2685ZM18.0691 15.906C18.168 16.7794 18.5221 17.6034 19.0873 18.2685L20.0018 17.4916C19.5929 17.0104 19.3339 16.4106 19.2614 15.771L18.0691 15.906ZM5.83014 20.4C4.80684 20.4 4.18782 19.1218 4.91275 18.2685L3.99824 17.4916C2.65635 19.071 3.71479 21.6 5.83014 21.6V20.4ZM18.1699 21.6C20.2852 21.6 21.3437 19.071 20.0018 17.4916L19.0873 18.2685C19.8122 19.1218 19.1932 20.4 18.1699 20.4V21.6ZM18.9166 12.7265C18.5096 9.13395 15.5481 6.4 12 6.4V7.6C14.91 7.6 17.3828 9.84776 17.7242 12.8616L18.9166 12.7265ZM6.27582 12.8616C6.61723 9.84776 9.09001 7.6 12 7.6V6.4C8.45189 6.4 5.49041 9.13395 5.08345 12.7265L6.27582 12.8616ZM14.4382 22.7894C14.0927 23.7114 13.1447 24.4 12 24.4V25.6C13.6254 25.6 15.034 24.619 15.5618 23.2106L14.4382 22.7894ZM12 24.4C10.8553 24.4 9.90735 23.7114 9.56184 22.7894L8.43816 23.2106C8.96602 24.619 10.3746 25.6 12 25.6V24.4Z" fill="#808080"/>
<rect x="4" width="24" height="16" rx="8" fill="#2C36F0"/>
<path d="M10.6453 4.781H11.2753V11H10.4653V6.347C10.0873 6.707 9.72728 6.707 9.16928 6.707V6.122C10.2583 6.122 10.5553 5.591 10.6453 4.781ZM14.7646 11.126C13.0636 11.126 12.3706 9.659 12.3706 7.895C12.3706 6.131 13.0636 4.655 14.7646 4.655C16.4656 4.655 17.1586 6.131 17.1586 7.895C17.1586 9.659 16.4656 11.126 14.7646 11.126ZM14.7646 10.406C15.9526 10.406 16.3486 9.218 16.3486 7.895C16.3486 6.572 15.9526 5.375 14.7646 5.375C13.5766 5.375 13.1806 6.572 13.1806 7.895C13.1806 9.218 13.5766 10.406 14.7646 10.406ZM20.3457 11.126C18.6447 11.126 17.9517 9.659 17.9517 7.895C17.9517 6.131 18.6447 4.655 20.3457 4.655C22.0467 4.655 22.7397 6.131 22.7397 7.895C22.7397 9.659 22.0467 11.126 20.3457 11.126ZM20.3457 10.406C21.5337 10.406 21.9297 9.218 21.9297 7.895C21.9297 6.572 21.5337 5.375 20.3457 5.375C19.1577 5.375 18.7617 6.572 18.7617 7.895C18.7617 9.218 19.1577 10.406 20.3457 10.406Z" fill="white"/>
</svg>
