<svg width="16" height="16" viewBox="0 0 16 16" fill="none" xmlns="http://www.w3.org/2000/svg">
<path d="M12.5333 2H3.46665C2.71991 2 2.34654 2 2.06133 2.14532C1.81044 2.27316 1.60647 2.47713 1.47864 2.72801C1.33331 3.01323 1.33331 3.3866 1.33331 4.13333V13.137C1.33331 13.4228 1.33331 13.5657 1.39349 13.6517C1.44604 13.7268 1.52722 13.777 1.61793 13.7904C1.71416 13.8046 1.83092 13.7508 2.05078 13.6412C2.07087 13.6312 2.08091 13.6262 2.09092 13.6206C2.09974 13.6157 2.10862 13.6104 2.11712 13.605C2.12677 13.5988 2.13609 13.5922 2.15473 13.5791L4.50321 11.9198C4.81149 11.702 4.96563 11.5931 5.13379 11.5159C5.28304 11.4473 5.44015 11.3974 5.60159 11.3673C5.7835 11.3333 5.97223 11.3333 6.3497 11.3333H12.5333C13.28 11.3333 13.6534 11.3333 13.9386 11.188C14.1895 11.0602 14.3935 10.8562 14.5213 10.6053C14.6666 10.3201 14.6666 9.94674 14.6666 9.2V4.13333C14.6666 3.3866 14.6666 3.01323 14.5213 2.72801C14.3935 2.47713 14.1895 2.27316 13.9386 2.14532C13.6534 2 13.28 2 12.5333 2Z" stroke="#808080" stroke-width="1.2"/>
</svg>
