<svg width="16" height="16" viewBox="0 0 16 16" fill="none" xmlns="http://www.w3.org/2000/svg">
<path d="M7.4 10.6666C7.4 10.998 7.66863 11.2666 8 11.2666C8.33137 11.2666 8.6 10.998 8.6 10.6666H7.4ZM8.6 3.33331C8.6 3.00194 8.33137 2.73331 8 2.73331C7.66863 2.73331 7.4 3.00194 7.4 3.33331L8.6 3.33331ZM10.2424 5.09091C10.4767 5.32523 10.8566 5.32523 11.0909 5.09091C11.3252 4.8566 11.3252 4.4767 11.0909 4.24238L10.2424 5.09091ZM8.4714 2.47139L8.04714 2.89565L8.4714 2.47139ZM7.5286 2.47139L7.95286 2.89565V2.89565L7.5286 2.47139ZM4.90907 4.24238C4.67475 4.4767 4.67475 4.8566 4.90907 5.09091C5.14338 5.32523 5.52328 5.32523 5.7576 5.09091L4.90907 4.24238ZM2.6 10.6666C2.6 10.3353 2.33137 10.0666 2 10.0666C1.66863 10.0666 1.4 10.3353 1.4 10.6666H2.6ZM14.6 10.6666C14.6 10.3353 14.3314 10.0666 14 10.0666C13.6686 10.0666 13.4 10.3353 13.4 10.6666H14.6ZM12.908 13.782L12.6356 13.2474V13.2474L12.908 13.782ZM13.782 12.908L14.3166 13.1804L13.782 12.908ZM2.21799 12.908L1.68338 13.1804L2.21799 12.908ZM3.09202 13.782L2.81962 14.3166H2.81962L3.09202 13.782ZM8.6 10.6666L8.6 3.33331L7.4 3.33331L7.4 10.6666H8.6ZM11.0909 4.24238L8.89567 2.04712L8.04714 2.89565L10.2424 5.09091L11.0909 4.24238ZM7.10433 2.04712L4.90907 4.24238L5.7576 5.09091L7.95286 2.89565L7.10433 2.04712ZM8.89567 2.04712C8.401 1.55246 7.59899 1.55246 7.10433 2.04712L7.95286 2.89565C7.9789 2.86961 8.02111 2.86961 8.04714 2.89565L8.89567 2.04712ZM1.4 10.6666V10.8H2.6V10.6666H1.4ZM5.2 14.6H10.8V13.4H5.2V14.6ZM14.6 10.8V10.6666H13.4V10.8H14.6ZM10.8 14.6C11.3502 14.6 11.7989 14.6004 12.1625 14.5707C12.5331 14.5405 12.8678 14.4759 13.1804 14.3166L12.6356 13.2474C12.5204 13.3061 12.3611 13.3505 12.0647 13.3747C11.7613 13.3995 11.37 13.4 10.8 13.4V14.6ZM13.4 10.8C13.4 11.3699 13.3995 11.7613 13.3747 12.0647C13.3505 12.3611 13.3061 12.5203 13.2474 12.6356L14.3166 13.1804C14.4759 12.8678 14.5405 12.533 14.5708 12.1624C14.6005 11.7988 14.6 11.3501 14.6 10.8H13.4ZM13.1804 14.3166C13.6696 14.0673 14.0673 13.6696 14.3166 13.1804L13.2474 12.6356C13.1132 12.899 12.899 13.1132 12.6356 13.2474L13.1804 14.3166ZM1.4 10.8C1.4 11.3501 1.39953 11.7988 1.42924 12.1624C1.45952 12.533 1.52411 12.8678 1.68338 13.1804L2.75259 12.6356C2.69388 12.5203 2.64947 12.3611 2.62526 12.0647C2.60047 11.7613 2.6 11.3699 2.6 10.8H1.4ZM5.2 13.4C4.63005 13.4 4.23867 13.3995 3.93526 13.3747C3.63886 13.3505 3.47964 13.3061 3.36441 13.2474L2.81962 14.3166C3.13222 14.4759 3.46694 14.5405 3.83754 14.5707C4.20115 14.6004 4.64985 14.6 5.2 14.6V13.4ZM1.68338 13.1804C1.93265 13.6696 2.3304 14.0673 2.81962 14.3166L3.36441 13.2474C3.10099 13.1132 2.88681 12.899 2.75259 12.6356L1.68338 13.1804Z" fill="#808080"/>
</svg>
